<mxfile host="app.diagrams.net" modified="2020-09-10T06:26:20.225Z" agent="5.0 (Windows NT 10.0; Win64; x64) AppleWebKit/537.36 (KHTML, like Gecko) Chrome/85.0.4183.83 Safari/537.36" etag="ObB4M3UDr3iH5a0UUoFq" version="13.6.4" type="github">
  <diagram id="mS-V9rAv7M4nj5-TS0qx" name="Page-1">
    <mxGraphModel dx="813" dy="454" grid="1" gridSize="10" guides="1" tooltips="1" connect="1" arrows="1" fold="1" page="1" pageScale="1" pageWidth="850" pageHeight="1100" math="0" shadow="0">
      <root>
        <mxCell id="0" />
        <mxCell id="1" parent="0" />
        <mxCell id="AeGM1yXBNTjjHc77pjk8-7" value="" style="group" vertex="1" connectable="0" parent="1">
          <mxGeometry x="350" y="250" width="250" height="110" as="geometry" />
        </mxCell>
        <mxCell id="AeGM1yXBNTjjHc77pjk8-2" value="" style="shape=internalStorage;whiteSpace=wrap;html=1;backgroundOutline=1;dx=80;dy=20;" vertex="1" parent="AeGM1yXBNTjjHc77pjk8-7">
          <mxGeometry y="20" width="250" height="90" as="geometry" />
        </mxCell>
        <mxCell id="AeGM1yXBNTjjHc77pjk8-3" value="Historia 1 Bit" style="text;html=1;strokeColor=none;fillColor=none;align=center;verticalAlign=middle;whiteSpace=wrap;rounded=0;" vertex="1" parent="AeGM1yXBNTjjHc77pjk8-7">
          <mxGeometry y="20" width="80" height="20" as="geometry" />
        </mxCell>
        <mxCell id="AeGM1yXBNTjjHc77pjk8-4" value="Contadores 2^s Bit&amp;nbsp;" style="text;html=1;strokeColor=none;fillColor=none;align=center;verticalAlign=middle;whiteSpace=wrap;rounded=0;" vertex="1" parent="AeGM1yXBNTjjHc77pjk8-7">
          <mxGeometry x="80" y="20" width="170" height="20" as="geometry" />
        </mxCell>
        <mxCell id="AeGM1yXBNTjjHc77pjk8-5" value="BHT" style="text;html=1;strokeColor=none;fillColor=none;align=center;verticalAlign=middle;whiteSpace=wrap;rounded=0;" vertex="1" parent="AeGM1yXBNTjjHc77pjk8-7">
          <mxGeometry x="105" width="40" height="20" as="geometry" />
        </mxCell>
        <mxCell id="AeGM1yXBNTjjHc77pjk8-8" value="" style="group" vertex="1" connectable="0" parent="1">
          <mxGeometry x="350" y="100" width="250" height="110" as="geometry" />
        </mxCell>
        <mxCell id="AeGM1yXBNTjjHc77pjk8-9" value="" style="shape=internalStorage;whiteSpace=wrap;html=1;backgroundOutline=1;dx=80;dy=20;" vertex="1" parent="AeGM1yXBNTjjHc77pjk8-8">
          <mxGeometry y="20" width="250" height="90" as="geometry" />
        </mxCell>
        <mxCell id="AeGM1yXBNTjjHc77pjk8-10" value="Historia 1 Bit" style="text;html=1;strokeColor=none;fillColor=none;align=center;verticalAlign=middle;whiteSpace=wrap;rounded=0;" vertex="1" parent="AeGM1yXBNTjjHc77pjk8-8">
          <mxGeometry y="20" width="80" height="20" as="geometry" />
        </mxCell>
        <mxCell id="AeGM1yXBNTjjHc77pjk8-11" value="LSB Last Branch" style="text;html=1;strokeColor=none;fillColor=none;align=center;verticalAlign=middle;whiteSpace=wrap;rounded=0;" vertex="1" parent="AeGM1yXBNTjjHc77pjk8-8">
          <mxGeometry x="80" y="20" width="170" height="20" as="geometry" />
        </mxCell>
        <mxCell id="AeGM1yXBNTjjHc77pjk8-12" value="PHT" style="text;html=1;strokeColor=none;fillColor=none;align=center;verticalAlign=middle;whiteSpace=wrap;rounded=0;" vertex="1" parent="AeGM1yXBNTjjHc77pjk8-8">
          <mxGeometry x="105" width="40" height="20" as="geometry" />
        </mxCell>
      </root>
    </mxGraphModel>
  </diagram>
</mxfile>
